<svg width="16" height="16" viewBox="0 0 16 16" fill="none" xmlns="http://www.w3.org/2000/svg">
<path d="M13.0047 9.66004C13.4406 8.84128 13.668 7.92765 13.6667 7.00004C13.6667 3.87037 11.1297 1.33337 7.99999 1.33337C4.87032 1.33337 2.33332 3.87037 2.33332 7.00004C2.33103 8.3368 2.80355 9.63093 3.66665 10.6517L3.67332 10.66C3.67565 10.662 3.67765 10.6647 3.67932 10.6667H3.66665L7.02932 14.2367C7.15398 14.369 7.30437 14.4745 7.47127 14.5465C7.63816 14.6186 7.81803 14.6558 7.99982 14.6558C8.18161 14.6558 8.36148 14.6186 8.52838 14.5465C8.69527 14.4745 8.84567 14.369 8.97032 14.2367L12.3333 10.6667H12.3207L12.326 10.6604L12.3267 10.6597C12.3507 10.631 12.3747 10.6024 12.3983 10.573C12.6295 10.2889 12.8327 9.98301 13.005 9.65971L13.0047 9.66004ZM8.00132 9.16671C7.47089 9.16671 6.96218 8.95599 6.58711 8.58092C6.21204 8.20585 6.00132 7.69714 6.00132 7.16671C6.00132 6.63627 6.21204 6.12757 6.58711 5.75249C6.96218 5.37742 7.47089 5.16671 8.00132 5.16671C8.53175 5.16671 9.04046 5.37742 9.41553 5.75249C9.79061 6.12757 10.0013 6.63627 10.0013 7.16671C10.0013 7.69714 9.79061 8.20585 9.41553 8.58092C9.04046 8.95599 8.53175 9.16671 8.00132 9.16671Z" fill="white"/>
</svg>
