<svg width="16" height="16" viewBox="0 0 16 16" fill="none" xmlns="http://www.w3.org/2000/svg">
<path d="M4.70466 1.612L5.48266 1.378C5.90885 1.24948 6.36725 1.28042 6.77231 1.46504C7.17737 1.64966 7.50142 1.97534 7.68399 2.38133L8.28533 3.71866C8.4423 4.06786 8.48602 4.45745 8.41033 4.83275C8.33465 5.20806 8.14337 5.55026 7.86333 5.81133L6.86666 6.74C6.83754 6.76713 6.8191 6.80378 6.81466 6.84333C6.78533 7.108 6.96466 7.62333 7.37866 8.34C7.67866 8.86066 7.95133 9.22666 8.18266 9.43133C8.34466 9.57466 8.43333 9.60533 8.47133 9.59466L9.81133 9.18466C10.1773 9.07273 10.5691 9.07811 10.9318 9.20006C11.2945 9.322 11.61 9.5544 11.834 9.86466L12.6873 11.0487C12.9471 11.4086 13.0674 11.8507 13.026 12.2926C12.9846 12.7346 12.7842 13.1466 12.462 13.452L11.8707 14.012C11.5572 14.3089 11.1721 14.5195 10.7531 14.6234C10.334 14.7272 9.89517 14.7208 9.47933 14.6047C7.64333 14.092 5.99733 12.5427 4.52266 9.98866C3.04666 7.43133 2.52799 5.22866 3.00666 3.38C3.11411 2.96422 3.32685 2.58313 3.62437 2.27346C3.9219 1.96379 4.29351 1.73598 4.70466 1.612ZM4.99333 2.57C4.74658 2.6442 4.52312 2.78071 4.34446 2.96637C4.16581 3.15203 4.03799 3.38058 3.97333 3.63C3.57199 5.18466 4.03133 7.13733 5.38866 9.48866C6.74466 11.8367 8.20399 13.21 9.74866 13.642C9.99818 13.7116 10.2615 13.7154 10.5129 13.653C10.7643 13.5906 10.9953 13.4642 11.1833 13.286L11.774 12.726C11.9205 12.5872 12.0117 12.3999 12.0306 12.199C12.0495 11.998 11.9948 11.797 11.8767 11.6333L11.0233 10.45C10.9215 10.3088 10.778 10.203 10.613 10.1476C10.448 10.0921 10.2698 10.0897 10.1033 10.1407L8.75999 10.552C7.97999 10.784 7.27266 10.1567 6.51266 8.84C5.99999 7.95333 5.76133 7.26666 5.82133 6.73266C5.85199 6.45533 5.98133 6.19933 6.18466 6.00866L7.18133 5.08C7.30856 4.96126 7.39543 4.80567 7.42975 4.63505C7.46406 4.46443 7.4441 4.28736 7.37266 4.12866L6.77199 2.79133C6.68899 2.60679 6.54168 2.45875 6.35755 2.37484C6.17342 2.29094 5.96505 2.27689 5.77133 2.33533L4.99333 2.57Z" fill="white"/>
</svg>
